<?xml version="1.0" encoding="UTF-8" standalone="no"?>
<!-- Created with Inkscape (http://www.inkscape.org/) -->

<svg
   width="297mm"
   height="210mm"
   viewBox="0 0 297 210"
   version="1.1"
   id="svg1537"
   xml:space="preserve"
   inkscape:version="1.2.2 (b0a8486541, 2022-12-01)"
   sodipodi:docname="banner.svg"
   xmlns:inkscape="http://www.inkscape.org/namespaces/inkscape"
   xmlns:sodipodi="http://sodipodi.sourceforge.net/DTD/sodipodi-0.dtd"
   xmlns="http://www.w3.org/2000/svg"
   xmlns:svg="http://www.w3.org/2000/svg"><sodipodi:namedview
     id="namedview1539"
     pagecolor="#ffffff"
     bordercolor="#000000"
     borderopacity="0.25"
     inkscape:showpageshadow="2"
     inkscape:pageopacity="0.0"
     inkscape:pagecheckerboard="0"
     inkscape:deskcolor="#d1d1d1"
     inkscape:document-units="mm"
     showgrid="false"
     inkscape:zoom="0.50422278"
     inkscape:cx="397.64169"
     inkscape:cy="373.84269"
     inkscape:window-width="1366"
     inkscape:window-height="677"
     inkscape:window-x="0"
     inkscape:window-y="68"
     inkscape:window-maximized="1"
     inkscape:current-layer="layer1" /><defs
     id="defs1534" /><g
     inkscape:label="Layer 1"
     inkscape:groupmode="layer"
     id="layer1"><g
       inkscape:label="Layer 1"
       id="layer1-3"
       transform="matrix(0.62872778,0,0,0.62872778,138.39267,10.677185)"><g
         id="g945"
         transform="matrix(1.429444,0,0,1.429444,56.244478,-91.697388)"><rect
           style="fill:#e4c369;fill-opacity:1;stroke:#773d00;stroke-width:0.223574;stroke-opacity:1;paint-order:markers fill stroke"
           id="rect941"
           width="79.776428"
           height="79.776428"
           x="16.187637"
           y="133.63762" /><rect
           style="fill:#e5e5e5;fill-opacity:1;stroke:#773d00;stroke-width:0.0726771;stroke-opacity:1;paint-order:markers fill stroke"
           id="rect943"
           width="25.932884"
           height="25.932884"
           x="43.109409"
           y="133.67395" /></g><g
         id="g939"><rect
           style="fill:#e4c369;fill-opacity:1;stroke:#773d00;stroke-width:0.223574;stroke-opacity:1;paint-order:markers fill stroke"
           id="rect790"
           width="79.776428"
           height="79.776428"
           x="16.187637"
           y="133.63762" /><rect
           style="fill:#e5e5e5;fill-opacity:1;stroke:#773d00;stroke-width:0.0726771;stroke-opacity:1;paint-order:markers fill stroke"
           id="rect900"
           width="25.932884"
           height="25.932884"
           x="43.109409"
           y="133.67395" /></g><g
         id="g951"
         transform="matrix(0.78080229,0,0,0.78080229,83.523792,46.804374)"><rect
           style="fill:#e4c369;fill-opacity:1;stroke:#773d00;stroke-width:0.223574;stroke-opacity:1;paint-order:markers fill stroke"
           id="rect947"
           width="79.776428"
           height="79.776428"
           x="16.187637"
           y="133.63762" /><rect
           style="fill:#e5e5e5;fill-opacity:1;stroke:#773d00;stroke-width:0.0726771;stroke-opacity:1;paint-order:markers fill stroke"
           id="rect949"
           width="25.932884"
           height="25.932884"
           x="43.109409"
           y="133.67395" /></g><g
         id="g1166"
         transform="translate(-2.6458334)"><path
           id="path1106"
           style="fill:#fff611;fill-opacity:1;stroke:#773d00;stroke-width:0.264999;paint-order:markers fill stroke"
           d="m 174.0084,76.72374 h -59.71313 v 11.170677 h 59.71313 c 2.55766,0 4.61672,-2.059055 4.61672,-4.616716 v -1.937244 c 0,-2.557661 -2.05906,-4.616717 -4.61672,-4.616717 z"
           sodipodi:nodetypes="sccssss" /><path
           id="path1108"
           style="fill:#f2f2f2;fill-opacity:1;stroke:#773d00;stroke-width:0.232164;paint-order:markers fill stroke"
           d="m 173.78631,77.415813 h -59.49104 v 9.78653 h 59.49104 c 2.24075,0 4.04467,-1.803918 4.04467,-4.044663 v -1.697202 c 0,-2.240744 -1.80392,-4.044665 -4.04467,-4.044665 z"
           sodipodi:nodetypes="sccssss" /></g><g
         id="g1185"><path
           id="path1168"
           style="fill:#00ff00;fill-opacity:1;stroke:#773d00;stroke-width:0.264999;paint-order:markers fill stroke"
           d="m 107.50086,88.159416 h 59.71313 v 11.170677 h -59.71313 c -2.55766,0 -4.61673,-2.059055 -4.61673,-4.616716 v -1.937244 c 0,-2.557661 2.05907,-4.616717 4.61673,-4.616717 z"
           sodipodi:nodetypes="sccssss" /><path
           id="path1170"
           style="fill:#f2f2f2;fill-opacity:1;stroke:#773d00;stroke-width:0.232164;paint-order:markers fill stroke"
           d="m 107.72295,88.851489 h 59.49104 v 9.78653 h -59.49104 c -2.24075,0 -4.04468,-1.803918 -4.04468,-4.044663 v -1.697202 c 0,-2.240744 1.80393,-4.044665 4.04468,-4.044665 z"
           sodipodi:nodetypes="sccssss" /></g><g
         id="g1485"
         transform="rotate(-30,70.08439,196.27435)"><rect
           style="fill:#f2f2f2;fill-opacity:1;stroke:none;stroke-width:0.264999;stroke-opacity:1;paint-order:markers fill stroke"
           id="rect1239"
           width="29.760775"
           height="12.823604"
           x="31.0742"
           y="171.45413"
           ry="0" /><path
           style="fill:none;fill-opacity:1;stroke:#000000;stroke-width:0.801932;stroke-linecap:round;stroke-dasharray:none;stroke-opacity:1;paint-order:markers fill stroke"
           d="m 34.801267,179.11426 c 3.87952,-14.12419 2.987593,3.11772 5.540318,3.05733 2.552726,-0.0604 0.972992,-6.84681 3.411739,-5.93218 2.438746,0.91463 3.815924,3.62464 6.245885,2.9534 2.429961,-0.67125 3.101005,-3.44611 7.108698,0.92771"
           id="path1477"
           sodipodi:nodetypes="czzzc" /></g><rect
         style="fill:#f2f2f2;fill-opacity:1;stroke:none;stroke-width:0.399916;stroke-opacity:1;paint-order:markers fill stroke"
         id="rect1487"
         width="29.760775"
         height="29.205072"
         x="102.27496"
         y="179.02145"
         ry="0" /></g></g></svg>
